<svg xmlns="http://www.w3.org/2000/svg" viewBox="0 0 64 64" role="img" aria-label="Sky Realms cloud logo">
  <defs>
    <linearGradient id="bg" x1="0" y1="0" x2="1" y2="1">
      <stop offset="0%" stop-color="#2B0F4E"/>
      <stop offset="55%" stop-color="#5B21B6"/>
      <stop offset="100%" stop-color="#7B2FF7"/>
    </linearGradient>
    <linearGradient id="cloud" x1="0" y1="0" x2="1" y2="1">
      <stop offset="0%" stop-color="#E9D5FF"/>
      <stop offset="100%" stop-color="#C4B5FD"/>
    </linearGradient>
    <radialGradient id="moon" cx="50%" cy="50%" r="50%">
      <stop offset="0%" stop-color="#F5D0FE"/>
      <stop offset="100%" stop-color="#E879F9"/>
    </radialGradient>
  </defs>

  <rect width="64" height="64" rx="14" fill="url(#bg)"/>

  <circle cx="48" cy="17" r="6" fill="url(#moon)" opacity="0.9"/>
  <circle cx="50" cy="15" r="6" fill="#5B21B6"/>
  <circle cx="16" cy="16" r="1.4" fill="#F5D0FE"/>
  <circle cx="22" cy="12" r="1.1" fill="#DDD6FE"/>

  <path d="M17 40c-4.2 0-7.5-3.1-7.5-7 0-3.6 2.8-6.5 6.4-6.9 1.2-4.8 5.5-8.2 10.7-8.2 4.7 0 8.8 2.8 10.4 7 0.6-0.2 1.3-0.3 2-0.3 4.5 0 8.1 3.4 8.1 7.7 0 4.2-3.5 7.7-8 7.7H17z" fill="url(#cloud)"/>
  <path d="M17 40h22c4.5 0 8-3.4 8-7.7 0-0.4 0-0.9-0.1-1.3-0.8 3.4-3.9 5.9-7.8 5.9H17c-3.5 0-6.5-2-7.7-4.9 0.5 4.5 4.1 8 8 8z" fill="#A78BFA" opacity="0.6"/>
</svg>
